<svg width="91" height="33" viewBox="0 0 91 33" fill="none" xmlns="http://www.w3.org/2000/svg">
<path fill-rule="evenodd" clip-rule="evenodd" d="M16.5891 1.80328L14.538 5.98689C12.7147 4.953 10.9635 4.43607 9.28416 4.43607C7.50888 4.43607 6.62126 5.04917 6.62126 6.27541C6.62126 6.75629 6.7652 7.18306 7.05308 7.55574C7.34096 7.92842 7.84475 8.37923 8.56446 8.9082L12.9187 12.0098C14.43 13.0678 15.5216 14.1377 16.1933 15.2197C16.865 16.3016 17.2009 17.5759 17.2009 19.0426C17.2009 21.3749 16.4452 23.1721 14.9338 24.4344C13.4224 25.6967 11.3233 26.3279 8.63643 26.3279C7.07706 26.3279 5.55371 26.1115 4.06632 25.6787C2.57893 25.2459 1.2235 24.6568 0 23.9115L2.08714 19.6918C3.1427 20.341 4.24624 20.8639 5.39777 21.2607C6.5493 21.6574 7.67682 21.8557 8.78037 21.8557C9.9319 21.8557 10.8195 21.6213 11.4433 21.1525C12.067 20.6836 12.3789 20.0645 12.3789 19.2951C12.3789 18.718 12.187 18.171 11.8031 17.6541C11.4193 17.1372 10.7715 16.5541 9.85992 15.9049L5.75762 12.9475C4.43816 12.0098 3.44858 11.012 2.78885 9.9541C2.12912 8.89617 1.79926 7.70602 1.79926 6.38361C1.79926 4.41201 2.46497 2.8552 3.79643 1.71311C5.12789 0.571033 6.96911 0 9.32014 0C11.7192 0 14.1421 0.601087 16.5891 1.80328ZM24.1174 7.6459C24.1174 8.39126 24.0575 8.95628 23.9375 9.34098L24.0455 9.41311C24.1894 9.2929 24.3753 9.21476 24.6032 9.17869C24.8311 9.14262 25.149 9.12459 25.5568 9.12459H27.3201V13.0557H25.5568C25.125 13.0557 24.8012 13.0377 24.5852 13.0016C24.3693 12.9656 24.1894 12.8995 24.0455 12.8033L23.9375 12.8754C24.0095 13.1158 24.0575 13.4044 24.0814 13.741C24.1054 14.0776 24.1174 14.4623 24.1174 14.8951V25.7869H19.6913V14.8951C19.6913 14.4623 19.7033 14.0776 19.7273 13.741C19.7512 13.4044 19.8112 13.1158 19.9072 12.8754L19.7992 12.8033C19.6313 12.8995 19.4454 12.9656 19.2415 13.0016C19.0375 13.0377 18.7077 13.0557 18.2519 13.0557H16.8125V9.12459H18.2519C18.6837 9.12459 19.0135 9.14262 19.2415 9.17869C19.4694 9.21476 19.6553 9.2929 19.7992 9.41311L19.9072 9.34098C19.7632 8.95628 19.6913 8.39126 19.6913 7.6459V3.06557L23.7576 0.216393H24.1174V7.6459ZM40.3541 10.1705C41.5296 11.2284 42.1174 12.9355 42.1174 15.2918V25.7869H37.6552C37.6552 24.6568 37.8352 23.671 38.195 22.8295L38.0511 22.7574C36.8276 25.1377 34.9204 26.3279 32.3294 26.3279C30.5542 26.3279 29.1208 25.7929 28.0292 24.723C26.9377 23.653 26.3919 22.2404 26.3919 20.4852C26.3919 18.73 26.9377 17.3295 28.0292 16.2836C29.1208 15.2377 30.5782 14.7148 32.4014 14.7148C33.6489 14.7148 34.7464 14.9612 35.6941 15.4541C36.6417 15.947 37.4033 16.6623 37.9791 17.6L38.1231 17.5279C37.9311 16.9508 37.8352 16.1333 37.8352 15.0754C37.7872 14.2098 37.4453 13.5486 36.8096 13.0918C36.1739 12.635 35.2922 12.4066 34.1647 12.4066C32.8692 12.4066 31.2259 12.647 29.2347 13.1279L28.3711 9.41311C30.5302 8.86011 32.6173 8.58361 34.6325 8.58361C37.2714 8.58361 39.1786 9.11256 40.3541 10.1705ZM31.9336 18.4656C31.3818 18.9465 31.106 19.5716 31.106 20.341C31.106 21.1104 31.3758 21.7295 31.9156 22.1984C32.4554 22.6672 33.1691 22.9016 34.0567 22.9016C34.9684 22.9016 35.712 22.6612 36.2878 22.1803C36.8636 21.6995 37.1515 21.0743 37.1515 20.3049C37.1515 19.5596 36.8696 18.9465 36.3058 18.4656C35.742 17.9847 35.0043 17.7443 34.0927 17.7443C33.2051 17.7443 32.4854 17.9847 31.9336 18.4656ZM44.4279 9.12459H48.7821C48.7821 10.3989 48.6501 11.565 48.3862 12.623L48.5302 12.6951C49.0819 11.2765 49.7956 10.2366 50.6713 9.57541C51.5469 8.9142 52.6924 8.58361 54.1079 8.58361C56.8187 8.58361 58.51 9.93004 59.1818 12.623H59.3257C59.7335 11.3727 60.4172 10.3869 61.3768 9.66557C62.3365 8.94426 63.5239 8.58361 64.9394 8.58361C66.6907 8.58361 68.0581 9.1306 69.0417 10.2246C70.0253 11.3186 70.5171 12.9235 70.5171 15.0393V25.7869H66.0909V16.482C66.0909 15.1355 65.839 14.1557 65.3352 13.5426C64.8314 12.9295 64.0757 12.623 63.0681 12.623C60.7651 12.623 59.6136 14.2699 59.6136 17.5639V25.7869H55.3313V16.4459C55.3313 15.0994 55.0735 14.1257 54.5577 13.5246C54.0419 12.9235 53.2802 12.623 52.2726 12.623C49.9696 12.623 48.818 14.2699 48.818 17.5639V25.7869H44.4279V9.12459ZM87.1856 9.70164C88.3851 10.447 89.3207 11.4929 89.9924 12.8393C90.6641 14.1858 91 15.7246 91 17.4557C91 19.2109 90.6701 20.7557 90.0104 22.0902C89.3507 23.4246 88.4271 24.4645 87.2396 25.2098C86.052 25.9552 84.6906 26.3279 83.1552 26.3279C81.7398 26.3279 80.5043 25.9852 79.4488 25.3C78.3932 24.6147 77.5896 23.6109 77.0378 22.2885L76.8938 22.3246C77.1097 23.3585 77.2177 24.4885 77.2177 25.7148V33H72.8635V9.12459H77.1817C77.1817 10.5672 77.0738 11.7213 76.8578 12.5869L77.0018 12.623C78.2973 9.93004 80.3364 8.58361 83.1193 8.58361C84.6306 8.58361 85.9861 8.95628 87.1856 9.70164ZM78.4052 13.9574C77.5176 14.847 77.0738 16.0131 77.0738 17.4557C77.0738 18.8984 77.5176 20.0645 78.4052 20.9541C79.2928 21.8437 80.4444 22.2885 81.8598 22.2885C83.2752 22.2885 84.3847 21.8557 85.1884 20.9902C85.9921 20.1246 86.3939 18.9465 86.3939 17.4557C86.3939 15.965 85.9861 14.7869 85.1704 13.9213C84.3547 13.0557 83.2512 12.623 81.8598 12.623C80.4444 12.623 79.2928 13.0678 78.4052 13.9574Z" fill="white"/>
</svg>
