<svg width="26" height="18" viewBox="0 0 26 18" fill="none" xmlns="http://www.w3.org/2000/svg">
<path fill-rule="evenodd" clip-rule="evenodd" d="M5.1087 13.8913C1.61721 11.8301 0 9 0 9C0 9 4 2 13 2C14.3045 2 15.504 2.14706 16.6014 2.39856L15.7519 3.2481C14.8971 3.09005 13.9801 3 13 3C5 3 1.19995 9 1.19995 9C1.19995 9 2.71473 11.3917 5.84493 13.1551L5.1087 13.8913ZM9.39856 15.6014C10.496 15.8529 11.6955 16 13 16C22 16 26 9 26 9C26 9 24.3828 6.16989 20.8913 4.1087L20.1551 4.84493C23.2853 6.60828 24.8 9 24.8 9C24.8 9 21 15 13 15C12.0199 15 11.1029 14.9099 10.2481 14.7519L9.39856 15.6014ZM16.8987 8.10135C16.965 8.39021 17 8.69101 17 9C17 11.2091 15.2091 13 13 13C12.691 13 12.3902 12.965 12.1013 12.8987L13 12C13.7678 12 14.5355 11.7071 15.1213 11.1213C15.7071 10.5355 16 9.76777 16 9L16.8987 8.10135ZM13.8987 5.10135C13.6098 5.03503 13.309 5 13 5C10.7909 5 9 6.79086 9 9C9 9.30899 9.03503 9.60979 9.10135 9.89865L10 9C10 8.23223 10.2929 7.46447 10.8787 6.87868C11.4645 6.29289 12.2322 6 13 6L13.8987 5.10135ZM21 0L4 17L5 18L22 1L21 0Z" fill="#9B9B9B"/>
</svg>
