<svg width="28" height="19" viewBox="0 0 28 19" fill="none" xmlns="http://www.w3.org/2000/svg">
<path fill-rule="evenodd" clip-rule="evenodd" d="M26.6 8H1.4C0.6272 8 0 8.672 0 9.5C0 10.328 0.6272 11 1.4 11H26.6C27.3728 11 28 10.328 28 9.5C28 8.672 27.3728 8 26.6 8ZM26.6 16H1.4C0.6272 16 0 16.672 0 17.5C0 18.328 0.6272 19 1.4 19H26.6C27.3728 19 28 18.328 28 17.5C28 16.672 27.3728 16 26.6 16ZM1.4 3H26.6C27.3728 3 28 2.328 28 1.5C28 0.672 27.3728 0 26.6 0H1.4C0.6272 0 0 0.672 0 1.5C0 2.328 0.6272 3 1.4 3Z" fill="white"/>
</svg>
